<svg width="33" height="25" viewBox="0 0 33 25" fill="none" xmlns="http://www.w3.org/2000/svg">
<g filter="url(#filter0_dd)">
<path d="M25.875 0H7.125C5.40156 0 4 1.40156 4 3.125V21.875C4 23.5984 5.40156 25 7.125 25H25.875C27.5984 25 29 23.5984 29 21.875V3.125C29 1.40156 27.5984 0 25.875 0Z" fill="#1976D2"/>
<path d="M25.0938 12.5H21.1875V9.375C21.1875 8.5125 21.8875 8.59375 22.75 8.59375H24.3125V4.6875H21.1875C18.5984 4.6875 16.5 6.78594 16.5 9.375V12.5H13.375V16.4062H16.5V25H21.1875V16.4062H23.5312L25.0938 12.5Z" fill="#FAFAFA"/>
</g>
<defs>
<filter id="filter0_dd" x="0" y="0" width="33" height="33" filterUnits="userSpaceOnUse" color-interpolation-filters="sRGB">
<feFlood flood-opacity="0" result="BackgroundImageFix"/>
<feColorMatrix in="SourceAlpha" type="matrix" values="0 0 0 0 0 0 0 0 0 0 0 0 0 0 0 0 0 0 127 0"/>
<feOffset dy="4"/>
<feGaussianBlur stdDeviation="2"/>
<feColorMatrix type="matrix" values="0 0 0 0 0 0 0 0 0 0 0 0 0 0 0 0 0 0 0.25 0"/>
<feBlend mode="normal" in2="BackgroundImageFix" result="effect1_dropShadow"/>
<feColorMatrix in="SourceAlpha" type="matrix" values="0 0 0 0 0 0 0 0 0 0 0 0 0 0 0 0 0 0 127 0"/>
<feOffset dy="4"/>
<feGaussianBlur stdDeviation="2"/>
<feColorMatrix type="matrix" values="0 0 0 0 0 0 0 0 0 0 0 0 0 0 0 0 0 0 0.25 0"/>
<feBlend mode="normal" in2="effect1_dropShadow" result="effect2_dropShadow"/>
<feBlend mode="normal" in="SourceGraphic" in2="effect2_dropShadow" result="shape"/>
</filter>
</defs>
</svg>
