<svg width="16" height="15" viewBox="0 0 16 15" fill="none" xmlns="http://www.w3.org/2000/svg">
<path d="M15.307 6.24221C15.2109 5.94476 14.9471 5.7335 14.6349 5.70536L10.3951 5.32038L8.7185 1.39623C8.59488 1.10864 8.31334 0.922485 8.00053 0.922485C7.68773 0.922485 7.40619 1.10864 7.28257 1.39691L5.60601 5.32038L1.36547 5.70536C1.0539 5.73417 0.790741 5.94476 0.694019 6.24221C0.597297 6.53966 0.686622 6.86592 0.92232 7.07158L4.12716 9.88224L3.18212 14.0451C3.11297 14.3512 3.23177 14.6676 3.48574 14.8512C3.62225 14.9498 3.78196 15 3.94301 15C4.08188 15 4.21962 14.9626 4.34324 14.8886L8.00053 12.7028L11.6565 14.8886C11.924 15.0495 12.2612 15.0349 12.5147 14.8512C12.7687 14.667 12.8874 14.3505 12.8183 14.0451L11.8732 9.88224L15.0781 7.07214C15.3138 6.86592 15.4038 6.54022 15.307 6.24221Z" fill="#FFC107"/>
</svg>
